<?xml version="1.0" standalone="no"?>
<!DOCTYPE svg PUBLIC "-//W3C//DTD SVG 20010904//EN"
 "http://www.w3.org/TR/2001/REC-SVG-20010904/DTD/svg10.dtd">
<svg version="1.0" xmlns="http://www.w3.org/2000/svg"
 width="1419.000000pt" height="440.000000pt" viewBox="0 0 1419.000000 440.000000"
 preserveAspectRatio="xMidYMid meet">
<metadata>
Created by potrace 1.15, written by Peter Selinger 2001-2017
</metadata>
<g transform="translate(0.000000,440.000000) scale(0.100000,-0.100000)"
fill="#000000" stroke="none">
<path d="M1850 2055 l0 -125 100 0 100 0 0 125 0 125 -100 0 -100 0 0 -125z"/>
<path d="M3800 2055 l0 -125 100 0 100 0 0 125 0 125 -100 0 -100 0 0 -125z"/>
<path d="M10670 2055 l0 -125 100 0 100 0 0 125 0 125 -100 0 -100 0 0 -125z"/>
<path d="M10 1330 l0 -790 105 0 105 0 0 673 1 672 196 -522 197 -523 110 0
111 0 195 520 195 520 3 -670 2 -670 105 0 105 0 0 790 0 790 -159 0 -159 0
-30 -77 c-16 -43 -105 -279 -197 -526 -93 -246 -170 -445 -173 -442 -4 3 -73
188 -378 1003 l-16 42 -159 0 -159 0 0 -790z"/>
<path d="M8470 2103 c0 -10 87 -364 193 -788 l193 -770 139 0 138 0 161 658
c88 361 163 657 166 657 3 0 77 -297 165 -660 l159 -660 138 0 137 0 10 38
c35 131 381 1524 381 1532 0 7 -39 10 -111 8 l-111 -3 -162 -653 -161 -653
-156 628 c-85 345 -158 640 -162 656 l-7 27 -120 0 c-116 0 -121 -1 -128 -22
-5 -13 -78 -305 -163 -650 -85 -344 -157 -621 -160 -615 -4 7 -77 299 -164
650 l-158 637 -108 0 c-97 0 -109 -2 -109 -17z"/>
<path d="M11270 1330 l0 -790 110 0 110 0 0 375 0 375 310 0 310 0 0 95 0 95
-310 0 -310 0 0 225 0 225 345 0 346 0 -3 93 -3 92 -452 3 -453 2 0 -790z"/>
<path d="M7070 1890 l0 -170 -70 0 -70 0 0 -80 0 -80 69 0 70 0 3 -397 c3
-349 6 -403 21 -442 54 -139 154 -181 430 -181 l147 0 0 85 0 85 -122 0 c-200
1 -248 21 -267 112 -7 29 -11 189 -11 393 l0 345 200 0 200 0 0 80 0 80 -200
0 -200 0 0 170 0 170 -100 0 -100 0 0 -170z"/>
<path d="M2878 1736 c-68 -20 -135 -62 -190 -119 l-48 -50 0 76 0 77 -105 0
-105 0 0 -590 0 -590 105 0 104 0 3 398 3 397 27 57 c55 117 155 178 292 178
61 0 83 -5 127 -28 47 -24 58 -36 89 -96 l35 -69 3 -418 3 -419 100 0 99 0 0
413 c0 439 -5 494 -50 590 -35 75 -100 140 -172 172 -54 25 -78 29 -168 31
-67 2 -122 -1 -152 -10z"/>
<path d="M4818 1731 c-75 -24 -115 -50 -176 -115 l-52 -55 0 80 0 79 -100 0
-100 0 0 -590 0 -590 99 0 100 0 3 393 3 392 29 63 c36 77 106 144 177 167 36
12 74 16 134 14 74 -4 88 -8 127 -34 28 -21 53 -50 73 -90 l30 -59 3 -423 3
-423 105 0 106 0 -5 423 c-3 347 -7 433 -21 485 -53 204 -182 303 -394 301
-55 0 -108 -7 -144 -18z"/>
<path d="M6089 1735 c-183 -45 -323 -178 -386 -369 -24 -73 -27 -96 -27 -236
-1 -123 3 -167 17 -215 59 -193 197 -329 387 -381 146 -40 373 -25 552 35 l83
28 3 96 c1 54 1 97 -1 97 -3 0 -29 -11 -59 -24 -315 -139 -612 -97 -721 102
-25 45 -57 154 -57 195 0 16 28 17 440 17 l440 0 0 108 c0 188 -45 315 -150
423 -95 97 -208 140 -370 138 -52 0 -120 -7 -151 -14z m294 -185 c69 -33 132
-108 157 -187 11 -36 20 -78 20 -94 l0 -29 -336 0 -337 0 6 44 c14 100 87 209
169 252 91 48 236 54 321 14z"/>
<path d="M1850 1130 l0 -590 100 0 100 0 0 590 0 590 -100 0 -100 0 0 -590z"/>
<path d="M3800 1130 l0 -590 100 0 100 0 0 590 0 590 -100 0 -100 0 0 -590z"/>
<path d="M10670 1130 l0 -590 100 0 100 0 0 590 0 590 -100 0 -100 0 0 -590z"/>
<path d="M12340 1130 l0 -590 100 0 100 0 0 590 0 590 -100 0 -100 0 0 -590z"/>
<path d="M7810 1130 l0 -90 290 0 290 0 0 90 0 90 -290 0 -290 0 0 -90z"/>
<path d="M1130 170 l0 -170 30 0 30 0 0 170 0 170 -30 0 -30 0 0 -170z"/>
<path d="M2500 320 c-11 -11 -20 -31 -20 -45 0 -20 -5 -25 -25 -25 -18 0 -25
-5 -25 -20 0 -15 7 -20 25 -20 l25 0 0 -105 0 -105 25 0 25 0 0 105 0 105 40
0 c33 0 40 3 40 20 0 17 -7 20 -40 20 -26 0 -40 5 -40 13 0 22 23 37 57 37 26
0 33 4 33 20 0 17 -7 20 -50 20 -37 0 -55 -5 -70 -20z"/>
<path d="M3995 315 c-14 -13 -25 -33 -25 -45 0 -13 -7 -20 -20 -20 -13 0 -20
-7 -20 -20 0 -13 7 -20 20 -20 19 0 20 -7 20 -105 l0 -105 30 0 30 0 0 105 0
105 49 0 48 0 5 -87 c6 -104 21 -123 99 -123 42 0 49 3 49 20 0 16 -7 20 -33
20 -48 0 -57 15 -57 97 l0 73 45 0 c38 0 45 3 45 20 0 17 -7 20 -45 20 -45 0
-45 0 -45 35 0 32 -2 35 -30 35 -28 0 -30 -3 -30 -35 l0 -35 -50 0 c-42 0 -50
3 -50 19 0 21 19 31 61 31 22 0 29 5 29 20 0 17 -7 20 -50 20 -41 0 -56 -5
-75 -25z"/>
<path d="M6495 315 c-14 -13 -25 -33 -25 -45 0 -13 -7 -20 -20 -20 -13 0 -20
-7 -20 -20 0 -13 7 -20 20 -20 19 0 20 -7 20 -105 l0 -105 30 0 30 0 0 105 0
105 55 0 55 0 0 -105 0 -105 30 0 30 0 0 125 0 125 -86 0 c-83 0 -85 1 -82 23
2 18 10 23 41 25 29 3 37 7 37 23 0 16 -7 19 -45 19 -35 0 -52 -6 -70 -25z"/>
<path d="M7600 285 c0 -52 -1 -55 -19 -45 -30 15 -104 12 -130 -6 -66 -47 -66
-172 1 -218 27 -19 119 -21 136 -4 9 9 12 9 12 0 0 -7 13 -12 30 -12 l30 0 0
170 0 170 -30 0 c-30 0 -30 -1 -30 -55z m-20 -97 c27 -30 28 -100 0 -128 -46
-46 -120 -9 -120 61 0 76 73 117 120 67z"/>
<path d="M9050 170 l0 -170 30 0 30 0 0 170 0 170 -30 0 -30 0 0 -170z"/>
<path d="M12030 170 l0 -170 25 0 c24 0 25 3 25 56 l0 56 67 -56 c52 -43 75
-56 100 -56 18 0 33 3 33 8 -1 4 -32 32 -70 62 -39 30 -70 57 -70 61 0 3 32
30 72 60 l72 54 -38 3 c-31 3 -46 -4 -101 -48 l-65 -52 0 96 c0 96 0 96 -25
96 l-25 0 0 -170z"/>
<path d="M0 165 l0 -165 120 0 120 0 0 25 c0 25 -1 25 -90 25 l-90 0 0 50 0
50 85 0 c84 0 85 0 85 25 0 25 -1 25 -85 25 l-85 0 0 40 0 40 90 0 c89 0 90 0
90 25 l0 25 -120 0 -120 0 0 -165z"/>
<path d="M3380 323 c-36 -13 -60 -47 -60 -85 0 -51 24 -73 97 -89 71 -15 103
-33 103 -59 0 -46 -79 -63 -159 -35 l-41 14 0 -29 c0 -25 5 -30 35 -36 19 -3
68 -5 109 -2 85 4 112 20 122 74 11 61 -35 104 -126 119 -25 4 -53 11 -62 17
-26 13 -22 45 7 64 25 16 51 16 133 -1 29 -7 32 -5 32 18 0 20 -6 26 -31 31
-37 7 -138 7 -159 -1z"/>
<path d="M5760 165 l0 -167 103 4 c160 6 217 48 217 163 0 115 -55 156 -216
163 l-104 5 0 -168z m228 82 c23 -23 27 -36 27 -83 0 -50 -3 -58 -33 -85 -29
-26 -40 -29 -97 -29 l-65 0 0 116 0 116 70 -4 c60 -3 74 -8 98 -31z"/>
<path d="M7887 278 c8 -29 30 -102 47 -163 l32 -110 36 -3 37 -3 20 68 c11 37
28 97 37 132 l18 63 36 -128 37 -129 36 -3 36 -3 26 88 c15 48 35 117 46 152
25 84 25 91 -9 91 -28 0 -29 -3 -62 -120 -19 -66 -37 -120 -40 -120 -3 0 -20
54 -39 120 l-33 120 -34 0 c-36 0 -30 13 -80 -167 -9 -32 -20 -62 -24 -66 -4
-5 -22 46 -41 112 l-34 121 -32 0 -32 0 16 -52z"/>
<path d="M10200 165 l0 -165 30 0 29 0 3 121 3 120 74 -120 c74 -121 74 -121
112 -121 l39 0 0 165 0 165 -30 0 -29 0 -3 -122 -3 -122 -75 122 c-74 121 -75
122 -112 122 l-38 0 0 -165z"/>
<path d="M1590 285 c0 -28 -4 -35 -20 -35 -13 0 -20 -7 -20 -20 0 -13 7 -20
20 -20 19 0 20 -7 20 -89 0 -82 2 -91 22 -105 14 -10 44 -16 75 -16 46 0 53 3
53 20 0 16 -7 20 -38 20 -54 0 -62 13 -62 97 l0 73 50 0 c43 0 50 3 50 20 0
17 -7 20 -50 20 l-50 0 0 35 c0 31 -3 35 -25 35 -22 0 -25 -4 -25 -35z"/>
<path d="M10890 285 c0 -24 -5 -35 -15 -35 -8 0 -15 -9 -15 -20 0 -11 7 -20
15 -20 12 0 15 -16 15 -83 0 -108 8 -119 89 -125 57 -4 61 -3 61 17 0 17 -6
21 -29 21 -57 0 -61 5 -61 91 l0 79 45 0 c38 0 45 3 45 20 0 17 -7 20 -45 20
-45 0 -45 0 -45 35 0 32 -2 35 -30 35 -28 0 -30 -3 -30 -35z"/>
<path d="M310 125 l0 -125 30 0 30 0 0 83 c0 74 3 86 23 105 27 26 59 28 81 6
12 -12 16 -37 16 -105 l0 -89 30 0 30 0 0 83 c0 74 3 86 23 105 27 26 59 28
81 6 12 -12 16 -37 16 -105 l0 -89 30 0 30 0 0 90 c0 95 -14 142 -45 154 -34
13 -103 6 -125 -12 -23 -18 -24 -18 -42 0 -20 20 -96 25 -129 8 -13 -7 -19 -7
-19 0 0 5 -13 10 -30 10 l-30 0 0 -125z"/>
<path d="M810 151 c0 -84 3 -102 21 -125 17 -22 28 -26 70 -26 28 0 59 5 70
10 13 7 19 7 19 0 0 -5 14 -10 30 -10 l30 0 0 125 0 125 -30 0 -30 0 0 -85 c0
-96 -16 -125 -69 -125 -47 0 -61 30 -61 127 0 82 0 83 -25 83 -25 0 -25 0 -25
-99z"/>
<path d="M1298 243 c-11 -3 -18 -14 -18 -30 0 -20 4 -24 18 -18 9 4 38 10 63
12 40 5 50 2 70 -18 l24 -24 -45 -3 c-115 -6 -150 -26 -150 -87 0 -54 28 -75
98 -75 33 0 64 5 71 12 11 10 14 10 18 1 3 -7 16 -13 29 -13 24 0 24 1 24 96
0 92 -1 97 -29 125 -27 26 -35 29 -93 28 -35 -1 -71 -3 -80 -6z"/>
<path d="M1804 216 c-30 -30 -34 -40 -34 -86 0 -94 38 -130 136 -130 50 0 59
3 90 34 31 31 34 40 34 91 0 51 -3 60 -34 91 -31 31 -39 34 -96 34 -57 0 -65
-3 -96 -34z m143 -28 c17 -16 23 -32 23 -65 0 -52 -26 -83 -70 -83 -45 0 -70
31 -70 85 0 77 65 112 117 63z"/>
<path d="M2100 125 l0 -125 24 0 c23 0 24 3 27 86 4 77 7 88 29 106 18 14 34
18 57 15 30 -5 33 -3 33 19 0 21 -5 24 -36 24 -19 0 -45 -5 -57 -11 -16 -9
-22 -9 -25 0 -2 6 -15 11 -28 11 l-24 0 0 -125z"/>
<path d="M2668 221 c-31 -28 -33 -33 -33 -96 0 -63 2 -68 33 -96 27 -25 41
-29 88 -29 98 0 134 36 134 131 0 45 -4 55 -34 85 -31 31 -39 34 -95 34 -53 0
-65 -4 -93 -29z m135 -24 c24 -17 36 -66 25 -102 -25 -90 -138 -68 -138 27 0
70 63 112 113 75z"/>
<path d="M2960 125 l0 -125 24 0 c23 0 24 3 27 86 4 77 7 88 29 106 18 14 34
18 57 15 30 -5 33 -3 33 19 0 21 -4 24 -38 24 -21 0 -48 -7 -60 -16 -20 -14
-22 -14 -22 0 0 10 -9 16 -25 16 l-25 0 0 -125z"/>
<path d="M3689 235 c-60 -32 -71 -154 -20 -206 26 -26 36 -29 93 -29 71 0 99
14 123 60 29 55 11 141 -36 174 -29 20 -124 21 -160 1z m130 -51 c44 -56 12
-144 -53 -144 -38 0 -63 23 -72 67 -6 32 15 87 38 96 33 14 67 6 87 -19z"/>
<path d="M4310 242 c0 -5 4 -22 10 -38 5 -16 21 -68 35 -117 26 -86 27 -87 59
-87 32 0 33 1 55 80 13 44 27 80 31 80 4 0 18 -36 31 -80 22 -79 23 -80 55
-80 32 0 33 1 59 88 14 48 30 100 35 116 15 43 13 48 -17 44 -25 -3 -30 -11
-53 -87 l-26 -83 -26 83 c-25 83 -26 84 -58 84 -32 0 -33 -1 -58 -84 l-26 -83
-26 83 c-23 76 -28 84 -53 87 -15 2 -27 -1 -27 -6z"/>
<path d="M4768 243 c-11 -3 -18 -14 -18 -30 0 -20 4 -24 18 -18 41 17 102 17
127 1 39 -26 30 -36 -30 -36 -31 0 -69 -7 -86 -15 -50 -26 -60 -84 -21 -127
17 -21 110 -25 143 -8 13 7 19 7 19 0 0 -5 14 -10 31 -10 l31 0 -4 101 c-3 96
-4 102 -31 125 -24 21 -38 24 -95 23 -37 -1 -75 -3 -84 -6z"/>
<path d="M5060 125 l0 -125 30 0 30 0 0 84 c0 80 1 86 27 106 18 14 37 20 55
18 24 -4 28 -1 28 19 0 20 -5 23 -36 23 -19 0 -44 -5 -55 -10 -13 -7 -19 -7
-19 0 0 5 -13 10 -30 10 l-30 0 0 -125z"/>
<path d="M5286 219 c-42 -36 -54 -83 -37 -139 16 -55 61 -80 142 -80 89 0 109
7 109 37 0 20 -4 24 -17 18 -10 -4 -44 -10 -75 -13 -51 -4 -59 -2 -82 21 -14
15 -26 31 -26 37 0 6 39 10 106 10 l107 0 -6 43 c-9 65 -50 97 -127 97 -52 0
-64 -4 -94 -31z"/>
<path d="M6188 232 c-53 -32 -71 -102 -44 -167 19 -45 61 -65 138 -65 88 0
108 7 108 37 0 20 -4 24 -17 18 -10 -4 -44 -10 -75 -13 -51 -4 -59 -2 -82 21
-14 15 -26 31 -26 37 0 6 39 10 106 10 l107 0 -6 43 c-9 65 -50 97 -125 97
-36 0 -67 -7 -84 -18z"/>
<path d="M6780 125 l0 -125 30 0 30 0 0 83 c0 74 3 86 23 105 28 27 68 28 90
4 13 -14 17 -39 17 -105 l0 -87 31 0 31 0 -4 100 c-3 88 -6 102 -28 125 -19
20 -33 25 -72 25 -27 0 -58 -5 -69 -10 -13 -7 -19 -7 -19 0 0 5 -13 10 -30 10
l-30 0 0 -125z"/>
<path d="M7148 234 c-35 -18 -58 -62 -58 -108 0 -87 46 -126 152 -126 82 0 98
6 98 36 0 21 -3 23 -26 14 -44 -17 -109 -12 -138 11 -51 40 -36 49 80 49 105
0 106 0 100 23 -3 12 -6 30 -6 40 0 10 -13 32 -29 48 -26 26 -36 29 -88 29
-32 -1 -70 -7 -85 -16z"/>
<path d="M8540 125 l0 -125 24 0 c23 0 24 3 27 86 4 77 7 88 29 106 18 14 34
18 57 15 30 -5 33 -3 33 19 0 21 -4 24 -38 24 -21 0 -48 -7 -60 -16 -20 -14
-22 -14 -22 0 0 10 -9 16 -25 16 l-25 0 0 -125z"/>
<path d="M8774 231 c-61 -37 -73 -147 -20 -199 22 -22 37 -27 96 -30 94 -6
120 2 120 33 0 22 -2 24 -26 15 -44 -17 -109 -12 -138 11 -51 40 -36 49 80 49
105 0 106 0 100 23 -3 12 -6 30 -6 40 0 10 -13 32 -29 48 -26 25 -37 29 -88
29 -39 0 -68 -6 -89 -19z"/>
<path d="M9216 219 c-42 -36 -54 -83 -37 -140 17 -56 58 -79 141 -79 90 0 110
7 110 37 0 20 -4 24 -17 18 -10 -4 -44 -10 -75 -13 -51 -4 -59 -2 -82 21 -14
15 -26 31 -26 37 0 6 39 10 106 10 l107 0 -6 43 c-9 65 -50 97 -127 97 -52 0
-64 -4 -94 -31z"/>
<path d="M9513 235 c-17 -12 -23 -26 -23 -56 0 -35 4 -41 33 -54 17 -8 51 -19
74 -25 49 -12 60 -25 42 -46 -10 -12 -26 -15 -69 -11 -30 2 -63 8 -72 12 -14
6 -18 2 -18 -18 0 -32 15 -37 106 -37 67 0 78 3 100 26 20 19 24 31 20 52 -9
38 -35 56 -100 71 -62 14 -74 24 -55 48 11 12 26 14 77 10 61 -6 63 -6 60 16
-3 20 -9 22 -78 25 -56 2 -81 -1 -97 -13z"/>
<path d="M9775 225 c-29 -28 -31 -51 -10 -82 14 -20 34 -28 118 -47 22 -5 28
-12 25 -29 -3 -20 -9 -22 -58 -22 -30 0 -65 4 -77 8 -20 7 -23 5 -23 -16 0
-31 15 -37 99 -37 81 0 121 23 121 70 0 37 -21 57 -73 71 -68 18 -87 28 -87
44 0 20 41 29 101 21 44 -6 49 -5 49 13 0 25 -18 31 -96 31 -56 0 -68 -4 -89
-25z"/>
<path d="M10618 234 c-35 -18 -58 -62 -58 -108 0 -87 47 -126 150 -126 90 0
110 7 110 37 0 20 -4 24 -17 18 -10 -4 -43 -10 -73 -12 -46 -4 -60 -1 -82 17
-53 41 -39 50 77 50 115 0 112 -2 95 62 -16 55 -51 78 -119 78 -31 -1 -68 -7
-83 -16z"/>
<path d="M11075 203 c63 -209 58 -198 92 -201 l32 -3 29 92 28 92 28 -92 c27
-90 27 -91 59 -91 l32 0 33 112 c19 61 36 117 39 125 4 9 -4 13 -24 13 -29 0
-31 -3 -54 -80 -13 -44 -26 -80 -29 -80 -3 0 -16 36 -29 80 -23 78 -25 80 -56
80 -32 0 -33 -1 -55 -80 -13 -45 -26 -77 -30 -73 -4 4 -17 41 -29 81 -20 68
-23 72 -51 72 l-29 0 14 -47z"/>
<path d="M11524 216 c-30 -30 -34 -40 -34 -86 0 -94 38 -130 136 -130 50 0 59
3 90 34 31 31 34 40 34 91 0 51 -3 60 -34 91 -31 31 -39 34 -96 34 -57 0 -65
-3 -96 -34z m143 -28 c17 -16 23 -32 23 -65 0 -52 -26 -83 -70 -83 -44 0 -70
31 -70 85 0 76 66 111 117 63z"/>
<path d="M11820 125 l0 -125 24 0 c23 0 24 3 27 86 4 77 7 88 29 106 18 14 34
18 57 15 30 -5 33 -3 33 19 0 21 -5 24 -36 24 -19 0 -45 -5 -57 -11 -16 -9
-22 -9 -25 0 -2 6 -15 11 -28 11 l-24 0 0 -125z"/>
<path d="M12331 232 c-25 -19 -31 -73 -12 -96 7 -8 37 -20 67 -27 30 -7 62
-18 72 -25 14 -10 14 -14 2 -29 -11 -14 -26 -16 -70 -12 -30 2 -63 8 -72 12
-14 6 -18 2 -18 -18 0 -32 15 -37 105 -37 87 0 116 17 117 69 1 44 -22 63 -96
80 -62 14 -74 24 -55 48 11 12 26 14 76 10 57 -6 63 -4 63 12 0 25 -19 31 -95
31 -45 0 -69 -5 -84 -18z"/>
</g>
</svg>
